IKResults
version=1
nRows=8
nColumns=40
inDegrees=yes

Units are S.I. units (second, meters, Newtons, ...)
Angles are in degrees.

endheader
time	pelvis_tilt	pelvis_list	pelvis_rotation	pelvis_tx	pelvis_ty	pelvis_tz	hip_flexion_r	hip_adduction_r	hip_rotation_r	knee_angle_r	knee_angle_r_beta	ankle_angle_r	subtalar_angle_r	mtp_angle_r	hip_flexion_l	hip_adduction_l	hip_rotation_l	knee_angle_l	knee_angle_l_beta	ankle_angle_l	subtalar_angle_l	mtp_angle_l	lumbar_extension	lumbar_bending	lumbar_rotation	arm_flex_r	arm_add_r	arm_rot_r	elbow_flex_r	pro_sup_r	wrist_flex_r	wrist_dev_r	arm_flex_l	arm_add_l	arm_rot_l	elbow_flex_l	pro_sup_l	wrist_flex_l	wrist_dev_l
      0.53000000	      2.18072403	      3.89534259	      2.92289262	      0.23660735	      0.88361304	      0.22500605	     18.20412633	     -2.98942059	      0.41989656	    -88.91979021	     -1.55194311	      6.72577787	    -18.63466444	     21.66937396	      6.37201593	     -9.88056852	      2.84190394	    -41.87162798	     -0.73079777	     23.42871453	      3.70610944	     -7.68183609	    -19.80305733	     -9.08375006	     -7.88885854	    -28.96080143	    -25.98460473	      1.31667749	    114.43312153	     89.95437384	      0.00000000	      0.00000000	    -18.39867149	     33.82194243	     -5.13403839	    128.29283153	     89.95437384	      0.00000000	      0.00000000
      0.54000000	      1.80587711	      2.69039417	      2.65576961	      0.27201030	      0.88299471	      0.22521197	     23.09778987	     -1.37445916	      0.82535854	    -89.90833689	     -1.56919650	      7.13809035	    -18.59370359	     21.34266476	      3.41288823	     -8.37812951	      2.48390898	    -40.45343640	     -0.70604566	     23.70762236	      2.92963420	     -8.40364383	    -19.53824924	     -7.63352352	     -8.67334558	    -30.79135496	    -26.43699081	      0.08743597	    115.94204737	     89.95437384	      0.00000000	      0.00000000	    -16.10242204	     33.85293802	     -5.65778233	    129.53311105	     89.95437384	      0.00000000	      0.00000000
      0.55000000	      1.04691883	      1.23800488	      2.54673714	      0.30794151	      0.88349136	      0.22496122	     28.09226001	      0.36825114	      0.59080812	    -89.88993218	     -1.56887528	      7.54070919	    -18.57411949	     20.94268493	      0.76781768	     -6.74300141	      1.77025616	    -38.65017826	     -0.67457287	     23.21762234	      2.53613955	     -8.57064901	    -18.74287051	     -5.88424316	     -9.74034898	    -32.45637607	    -27.27066033	     -0.77955742	    117.97865269	     89.95437384	      0.00000000	      0.00000000	    -14.63769697	     33.61621442	     -5.67904798	    131.32473587	     89.95437384	      0.00000000	      0.00000000
      0.56000000	      0.04247932	     -0.65001285	      2.58733385	      0.34439922	      0.88522627	      0.22462543	     32.91483848	      2.37838759	     -0.41248954	    -88.82095125	     -1.55021804	      7.72366487	    -18.57026990	     20.74550095	     -1.36151087	     -4.53633566	      1.30655708	    -37.17040188	     -0.64874590	     21.90955212	      2.41489616	     -8.88105594	    -17.59993353	     -3.61216672	    -10.51178858	    -34.49646775	    -27.86569427	     -2.09697590	    120.48238674	     89.95437384	      0.00000000	      0.00000000	    -13.09920498	     33.37797078	     -6.16089487	    133.10968074	     89.95437384	      0.00000000	      0.00000000
      0.57000000	     -1.09512254	     -1.91926140	      2.39049658	      0.38174609	      0.88850002	      0.22372694	     37.42243604	      3.52824282	     -1.39487769	    -86.97457616	     -1.51799272	      7.84684906	    -18.34233501	     20.34842252	     -3.53498855	     -3.24733813	      0.59170974	    -35.13149403	     -0.61316024	     19.33747989	      2.58670525	     -8.70453457	    -16.27069998	     -2.00790984	    -11.56384288	    -36.08646964	    -28.64751104	     -2.94396327	    122.89947551	     89.95437384	      0.00000000	      0.00000000	    -12.46264685	     32.79849842	     -5.96782917	    135.11470769	     89.95437384	      0.00000000	      0.00000000
      0.58000000	     -1.28561477	     -3.75484761	      2.44379247	      0.42049451	      0.89483041	      0.22294477	     40.07983208	      5.11266449	     -3.16503025	    -83.83110719	     -1.46312884	      7.53570459	    -18.28433398	     20.14180250	     -6.56844210	     -1.09096802	      0.17763210	    -33.16721184	     -0.57887705	     14.90808586	      3.00105298	     -8.88178414	    -15.90221390	      0.28378941	    -12.29153454	    -37.81410003	    -29.07587343	     -4.09263531	    125.29190786	     89.95437384	      0.00000000	      0.00000000	    -11.41505266	     32.42144758	     -6.37484615	    136.92372450	     89.95437384	      0.00000000	      0.00000000
      0.59000000	     -1.98920250	     -4.98255242	      2.30213129	      0.45976805	      0.90148162	      0.22205706	     42.90326182	      6.07750130	     -4.61876790	    -80.31945231	     -1.40183890	      7.01911075	    -17.77357562	     19.68502373	     -8.86878742	      0.33582118	     -0.12000377	    -31.26673370	     -0.54570745	      9.10725585	      3.49426653	     -8.49797788	    -14.92809116	      1.85921122	    -13.09624527	    -39.27803405	    -29.46089934	     -4.80000563	    127.26550738	     89.95437384	      0.00000000	      0.00000000	    -10.93025307	     31.85646182	     -6.50214228	    138.63152833	     89.95437384	      0.00000000	      0.00000000
      0.60000000	     -1.68789382	     -6.57547488	      2.12036779	      0.50090414	      0.91064291	      0.22164904	     43.80750674	      7.52893692	     -6.38692112	    -75.74768181	     -1.32204645	      5.85868433	    -17.08962826	     18.82772363	    -12.44280869	      2.41773000	      0.44801048	    -28.62698047	     -0.49963506	      1.88741151	      2.96769703	     -8.16397502	    -14.94399771	      3.80151018	    -13.40175101	    -40.82998799	    -29.60271212	     -5.63851103	    128.95147443	     89.95437384	      0.00000000	      0.00000000	    -10.43756567	     31.22881058	     -6.81479653	    140.07944846	     89.95437384	      0.00000000	      0.00000000
